# xmcd
#
# Track frame offsets:
#	150
#	18340
#	35598
#	50241
#	66748
#	82184
#	99916
#	124402
#	140586
#	159437
#	175054
#	193406
#	215412
#	232616
#	249193
#
# Disc length: 3578
#
# Revision: 1
# Processed by: cddbd v1.5.2PL0 Copyright (c) Steve Scherf et al.
# Submitted via: kJams Lite (development) 1.0patch46.48
#
DISCID=d70df80f
DTITLE=Various Artist - Sound Choice Country Hits - Vol. 191 - 8998
DYEAR=2007
DGENRE=Karaoke
TTITLE0=Trace Adkins - Ladies Love Country Boys
TTITLE1=Steve Holy - Brand New Girlfriend
TTITLE2=Terri Clark - Dirty Girl
TTITLE3=Rascal Flatts - Stand
TTITLE4=Montgomery Gentry - Lucky Man
TTITLE5=John Mellencamp - Our Country
TTITLE6=Keith Urban and Ronnie Dunn - Raise The Barn
TTITLE7=Toby Keith - High Maintenance Woman
TTITLE8=Wreckers - Tennessee
TTITLE9=Little Big Town - We Go Together
TTITLE10=Craig Morgan - Little Bit Of Life
TTITLE11=Carrie Underwood - Wasted
TTITLE12=Trace Adkins - Ladies Love Country Boys
TTITLE13=Billy Covington - Good Directions
TTITLE14=Miranda Lambert - Famous In A Small Town
EXTD=
EXTT0=
EXTT1=
EXTT2=
EXTT3=
EXTT4=
EXTT5=
EXTT6=
EXTT7=
EXTT8=
EXTT9=
EXTT10=
EXTT11=
EXTT12=
EXTT13=
EXTT14=
PLAYORDER=
